<svg xmlns="http://www.w3.org/2000/svg" viewBox="0 0 448.43 116.8"><path d="M9.2,65,21.39,86h2.19L35.84,65h9l-15,25,15,26.06H35.7l-12.27-22H21.24l-12.19,22H0L15,90,0,65Zm41.1,35.55h8.24l.15.8c1.1,6,5.11,8.47,12.85,8.47,7.15,0,10.87-2.41,10.87-7.15,0-4.09-2.4-6.28-8.83-8.33L65,91.61C56,88.77,52.49,84.68,52.49,78.18c0-9,7.15-13.8,17.88-13.8C81.9,64.38,88.25,69.2,90,78.11l.29,1.46H82.05l-.36-1.24c-1.39-4.67-4.82-6.94-11.1-6.94-6.72,0-9.93,2.56-10,6.06-.07,3.21,1.75,5.33,6.28,6.79L78.55,88c9.41,3.06,12,7.81,12,13.65,0,9.27-6.79,15.11-19.86,15.11-12.11,0-19-4.89-20.29-15.11ZM99,.73c12.26,0,17.22,4,17.22,11.39,0,5.4-2.77,8.68-7.15,10.14l-1.31.44v1.46l.73.15c6.13,1.24,9.34,5,9.34,12.12,0,9.78-5.4,15.4-18.47,15.4H76.72V.73ZM85,20.44H99c6.78,0,8.76-2.19,8.76-6.57s-2-6.21-8.76-6.21H85Zm0,24.45H99.35c6.79,0,10-2.19,10-8.32V35.33c0-6.13-3.21-8.32-10-8.32H85ZM99.72,86.65h22.33V94H99.72Zm36.71,13.87.15.8c1.09,6,5.11,8.47,12.85,8.47,7.15,0,10.87-2.41,10.87-7.15,0-4.09-2.41-6.28-8.83-8.33l-8.54-2.7c-9.05-2.84-12.56-6.93-12.56-13.43,0-9,7.16-13.8,17.89-13.8,11.53,0,17.88,4.82,19.64,13.73l.29,1.46h-8.25l-.37-1.24c-1.38-4.67-4.81-6.94-11.09-6.94-6.72,0-9.93,2.56-10,6.06-.08,3.21,1.75,5.33,6.28,6.79L156.44,88c9.41,3.06,12,7.81,12,13.65,0,9.27-6.79,15.11-19.86,15.11-12.11,0-19-4.89-20.29-15.11l-.15-1.17ZM128.77.73H137V34.67c0,7.09,3.5,10.59,10.73,10.59h2.19c7.08,0,10.51-3.5,10.51-10.59V.73h8.25V34.38c0,12.41-6.43,18.18-20.15,18.18-13.43,0-19.78-5.84-19.78-18.18ZM177.6,86.65h22.34V94H177.6ZM205.85.73c11.68,0,17,4.31,17,11.83,0,5.91-3.28,9-7.22,10.51l-1.17.44V25l.87.14c4.82.8,6.28,3,6.28,9.34V51.83h-8.25V34.45c0-4.59-1.31-6.71-6.71-6.71H190.82V51.83h-8.25V.73Zm-.07,20.44c6.94,0,8.69-2.34,8.69-7,0-5-2.34-6.5-8.62-6.5h-15V21.17ZM217.1,65v5.62h1.67c2.92-4.45,6.21-6.21,11.61-6.21s8.83,2.27,10.37,6.21h1.68c2.55-3.87,6.06-6.21,12.19-6.21,7.52,0,12.26,5.41,12.26,13.14v38.55h-8.25V80c0-5.48-2.92-8.33-8.1-8.33s-8.1,3-8.1,9.06v35.33h-8.25V80c0-5.48-2.92-8.33-8.11-8.33s-8.1,3.07-8.1,9.06v35.33h-8.25V65Zm19.56-13.14V.73H271V7.66H244.91V21.17H269v6.57H244.91V44.89H271v6.94ZM276.37,94v-7.3h22.34V94ZM315.28,6.79H317V.73h7.37v51.1H317V45.77h-1.68c-2.26,3.87-7.08,6.79-13.65,6.79-15.19,0-20.51-12.27-20.51-26.28S286.44,0,301.63,0C308.2,0,313,2.92,315.28,6.79ZM289.36,27.08c0,12.19,4.89,18.25,13.51,18.25,9,0,13.21-5.84,13.21-18.17V25.4c0-12.33-4.23-18.17-13.21-18.17-8.62,0-13.51,6.13-13.51,18.32Zm19.13,89V65h8.25v44.16h22.92v6.94Zm27.3-29.42h22.34V94H335.79ZM338.2.73h8.25V34.67c0,7.09,3.5,10.59,10.73,10.59h2.19c7.08,0,10.51-3.5,10.51-10.59V.73h8.25V34.38c0,12.41-6.42,18.18-20.15,18.18-13.43,0-19.78-5.84-19.78-18.18ZM371.78,65,384,86h2.19l12.26-21h9.06l-15,25,15,26.06h-9.2L386,94.09h-2.19l-12.19,22h-9.05l15-26.06-15-25Zm45.48,51.1V65h8.24v44.16h22.93v6.94Z"/></svg>