<svg xmlns="http://www.w3.org/2000/svg" viewBox="0 0 301.41 116.8"><path d="M0,.73H22.26c12.27,0,17.23,4,17.23,11.39,0,5.4-2.77,8.68-7.15,10.14L31,22.7v1.46l.73.15c6.14,1.24,9.35,5,9.35,12.12,0,9.78-5.4,15.4-18.47,15.4H0ZM22.26,20.44c6.79,0,8.76-2.19,8.76-6.57s-2-6.2-8.76-6.2h-14V20.44Zm.37,24.45c6.79,0,10-2.19,10-8.32V35.33c0-6.13-3.21-8.32-10-8.32H8.25V44.89ZM58.47,65,70.66,86h2.19L85.12,65h9l-15,25,15,26.06H85l-12.26-22H70.52l-12.19,22H49.27L64.24,90l-15-25ZM52.05.73H60.3V34.67c0,7.09,3.5,10.59,10.73,10.59h2.19c7.08,0,10.51-3.5,10.51-10.59V.73H92V34.38c0,12.41-6.43,18.18-20.15,18.18-13.43,0-19.78-5.84-19.78-18.18Zm47.52,99.79h8.25l.14.8c1.1,6,5.11,8.47,12.85,8.47,7.16,0,10.88-2.41,10.88-7.15,0-4.09-2.41-6.28-8.83-8.33l-8.55-2.7c-9-2.84-12.55-6.93-12.55-13.43,0-9,7.15-13.79,17.88-13.79,11.54,0,17.89,4.81,19.64,13.72l.29,1.46h-8.25L131,78.33c-1.39-4.67-4.82-6.94-11.1-6.94-6.71,0-9.93,2.56-10,6.06-.07,3.21,1.75,5.33,6.28,6.79L127.82,88c9.42,3.06,12,7.81,12,13.65,0,9.27-6.78,15.11-19.85,15.11-12.12,0-19-4.89-20.3-15.11Zm6.28-48.69V.73h23.28c11.68,0,17,4.31,17,11.83,0,5.91-3.28,9-7.23,10.51l-1.16.44V25l.87.14c4.82.81,6.28,3,6.28,9.35V51.83h-8.25V34.46c0-4.6-1.31-6.72-6.71-6.72H114.1V51.83Zm23.21-30.66c6.94,0,8.69-2.34,8.69-7,0-5-2.34-6.49-8.62-6.49h-15v13.5Zm20,72.78v-7.3H171.4V94ZM194.32.73V7.67H168.19v13.5h24.09v6.57H168.19V44.89h26.13v6.94H159.94V.73ZM188.55,90l-15-25h9.2L195,86h2.19l12.26-21h9l-15,25,15,26.06h-9.19L197,94.1h-2.19l-12.19,22h-9ZM224.91,0c6.57,0,11.38,2.92,13.65,6.79h1.68V.73h7.37v51.1h-7.37V45.77h-1.68c-2.27,3.87-7.08,6.79-13.65,6.79-15.19,0-20.52-12.26-20.52-26.28S209.72,0,224.91,0Zm1.24,45.33c9,0,13.21-5.84,13.21-18.17V25.4c0-12.33-4.23-18.17-13.21-18.17-8.62,0-13.51,6.13-13.51,18.32v1.53C212.64,39.27,217.53,45.33,226.15,45.33ZM228.26,65h8.25v44.16h22.92v6.94H228.26Zm33.22-30.59V.73h8.25V34.67c0,7.09,3.5,10.59,10.73,10.59h2.19c7.08,0,10.51-3.5,10.51-10.59V.73h8.25V34.38c0,12.41-6.43,18.18-20.15,18.18C267.83,52.56,261.48,46.72,261.48,34.38Z"/></svg>