<svg xmlns="http://www.w3.org/2000/svg" viewBox="0 0 210.16 52.41"><path d="M9.2.58l12.19,21h2.19L35.84.58h9l-15,25,15,26.06H35.7l-12.27-22H21.24l-12.19,22H0L15,25.62,0,.58ZM58.69,36.94c1.1,6,5.11,8.46,12.85,8.46,7.15,0,10.88-2.4,10.88-7.15,0-4.09-2.41-6.28-8.84-8.32L65,27.23C56,24.38,52.49,20.29,52.49,13.8c0-9,7.15-13.8,17.88-13.8C81.9,0,88.25,4.82,90,13.72l.29,1.46H82.05l-.37-1.24C80.3,9.27,76.87,7,70.59,7c-6.72,0-9.93,2.55-10,6.06-.07,3.21,1.75,5.33,6.28,6.79l11.68,3.79c9.41,3.07,12,7.81,12,13.65,0,9.27-6.79,15.11-19.85,15.11-12.12,0-19-4.89-20.3-15.11l-.14-1.17h8.24Zm63.44-7.38H99.79v-7.3h22.34Zm17.15-3.94-15-25h9.2l12.19,21h2.19l12.27-21h9.05l-15,25,15,26.06H160l-12.26-22h-2.19l-12.19,22h-9.06ZM179,51.68V.58h8.25V44.75h22.92v6.93Z"/></svg>