<svg width="1569" height="476" viewBox="0 0 1569 476" fill="none" xmlns="http://www.w3.org/2000/svg">
<path d="M182.6 471.02L108.46 363.44L176.71 265H144.02L91.95 339.48L40.63 265H6.45L74.82 363.99L0 471.02H33.86L91.41 388.02L148.73 471.02H182.6Z" fill="black"/>
<path d="M1419 471.02L1344.86 363.44L1413.11 265H1380.42L1328.35 339.48L1277.03 265H1242.85L1311.22 363.99L1236.4 471.02H1270.27L1327.81 388.02L1385.13 471.02H1419Z" fill="black"/>
<path d="M286.49 355.65C309.84 359.97 325.78 367.13 334.32 377.13C342.86 387.14 347.12 400.09 347.12 415.98C347.12 435.21 340.3 449.87 326.67 459.98C313.03 470.08 293.95 475.14 269.43 475.14C256.68 475.14 245 473.52 234.41 470.28C223.82 467.04 214.64 462.33 206.89 456.15C199.14 449.97 192.96 442.27 188.35 433.05C183.74 423.83 180.55 411.87 180.55 400.09H210.57C210.57 415.53 217.34 428.83 227.35 436.88C237.36 444.92 251.39 448.95 269.44 448.95C285.92 448.95 298.04 445.96 305.79 439.97C313.54 433.99 317.41 425.99 317.41 415.98C317.41 412.25 316.97 408.67 316.09 405.24C315.21 401.81 313.49 398.67 310.94 395.82C308.39 392.98 304.66 390.42 299.76 388.17C294.86 385.92 288.48 384.1 280.63 382.73L256.79 378.61C236.38 375.08 220.74 368.65 209.85 359.33C198.96 350.01 193.52 336.82 193.52 319.75C193.52 301.9 199.95 287.62 212.8 276.93C225.65 266.24 244.24 260.89 268.57 260.89C288.39 260.89 305.21 266.04 319.04 276.34C332.87 286.64 343.62 304.69 343.62 327.4H314.78C314.78 314.55 308.7 303.51 300.65 296.94C292.61 290.37 281.81 287.08 268.28 287.08C252.58 287.08 241.01 290.02 233.55 295.91C226.09 301.8 222.37 309.06 222.37 317.69C222.37 326.13 225.17 333.14 230.76 338.73C236.35 344.32 246.9 348.49 262.4 351.24L286.49 355.65Z" fill="black"/>
<path d="M555.52 355.65C578.87 359.97 594.81 367.13 603.35 377.13C611.89 387.14 616.15 400.09 616.15 415.98C616.15 435.21 609.33 449.87 595.7 459.98C582.06 470.08 562.98 475.14 538.46 475.14C525.71 475.14 514.03 473.52 503.44 470.28C492.85 467.04 483.67 462.33 475.92 456.15C468.17 449.97 461.99 442.27 457.38 433.05C452.77 423.83 449.58 411.87 449.58 400.09H479.6C479.6 415.53 486.37 428.83 496.38 436.88C506.39 444.92 520.42 448.95 538.47 448.95C554.95 448.95 567.07 445.96 574.82 439.97C582.57 433.99 586.44 425.99 586.44 415.98C586.44 412.25 586 408.67 585.12 405.24C584.24 401.81 582.52 398.67 579.97 395.82C577.42 392.98 573.69 390.42 568.79 388.17C563.89 385.92 557.51 384.1 549.66 382.73L525.82 378.61C505.41 375.08 489.77 368.65 478.88 359.33C467.99 350.01 462.55 336.82 462.55 319.75C462.55 301.9 468.98 287.62 481.83 276.93C494.68 266.24 513.27 260.89 537.6 260.89C557.42 260.89 574.24 266.04 588.07 276.34C601.9 286.64 612.65 304.69 612.65 327.4H583.81C583.81 314.55 577.73 303.51 569.68 296.94C561.64 290.37 550.84 287.08 537.31 287.08C521.61 287.08 510.04 290.02 502.58 295.91C495.12 301.8 491.4 309.06 491.4 317.69C491.4 326.13 494.2 333.14 499.79 338.73C505.38 344.32 515.93 348.49 531.43 351.24L555.52 355.65Z" fill="black"/>
<path d="M811.1 471.02L761.56 283.54L761.27 282.44V283.01V471.01H733.6V265H784.43L832.49 449.53L832.78 450.69L833.07 449.53L880.87 265H930.5V471.02H902.83V284.13V282.44L902.54 284.13L853.59 471.02H811.1Z" fill="black"/>
<path d="M1466.79 444.53V265H1437.36V471.02H1568.62V444.53H1466.79Z" fill="black"/>
<path d="M1089.79 444.53V265H1060.36V471.02H1191.62V444.53H1089.79Z" fill="black"/>
<path d="M435.83 350.41H363.72V376.9H435.83V350.41Z" fill="black"/>
<path d="M704.83 350.41H632.72V376.9H704.83V350.41Z" fill="black"/>
<path d="M1031.49 350.41H959.38V376.9H1031.49V350.41Z" fill="black"/>
<path d="M1247.83 350.41H1175.72V376.9H1247.83V350.41Z" fill="black"/>
<path d="M786.63 206.31L711.12 105.3C729.58 105.3 744.95 98.55 753.97 89.62C763 80.69 767.51 68.38 767.51 52.68C767.51 35.61 762.21 22.56 751.62 13.54C741.02 4.51 725.03 0 703.64 0H619.76V206.31H649.19V105.3H677.79L752.19 206.31H786.63ZM649.19 80.35V25.6H702.17C714.14 25.6 723.02 27.81 728.81 32.22C734.6 36.63 737.49 43.55 737.49 52.97C737.49 62.58 734.6 69.55 728.81 73.87C723.02 78.19 714.12 80.35 702.17 80.35H649.19V80.35Z" fill="black"/>
<path d="M367.17 88.35C370.28 87.95 394.2 77.9 394.2 50.63C394.2 8.83 358.72 0 330.93 0H244.99V206.02H330.93C361.64 206.02 404.7 195.87 406.27 141.86C405.03 102.71 370.28 88.92 367.17 88.35ZM274.12 25.31H330.92C344.26 25.31 351.18 27.66 356.38 32.37C361.58 37.08 364.18 43.65 364.18 52.09C364.18 60.72 361.58 67.25 356.38 71.66C351.18 76.07 344.26 78.28 330.92 78.28H274.12V25.31ZM365.8 170.85C359.23 177.42 345.84 180.71 330.92 180.71H274.12V103.01H330.92C346.42 103.01 358.98 106.54 365.65 113.6C372.32 120.66 375.66 130.28 375.66 141.85C375.66 154.81 372.37 164.27 365.8 170.85Z" fill="black"/>
<path d="M562.96 0V129.79C562.96 145.62 558.59 158.88 549.86 168.79C541.13 178.7 528.23 183.65 511.16 183.65C494.09 183.65 481.19 178.7 472.46 168.79C463.73 158.88 459.36 145.88 459.36 129.79V0H429.93V128.61C429.93 155.49 437.39 175.8 452.3 189.53C467.21 203.26 486.83 210.13 511.16 210.13C535.49 210.13 555.11 203.26 570.02 189.53C584.93 175.8 592.39 155.49 592.39 128.61V0H562.96Z" fill="black"/>
<path d="M1294.21 0V129.79C1294.21 145.62 1289.84 158.88 1281.11 168.79C1272.38 178.7 1259.48 183.65 1242.41 183.65C1225.34 183.65 1212.44 178.7 1203.71 168.79C1194.98 158.88 1190.61 145.88 1190.61 129.79V0H1161.18V128.61C1161.18 155.49 1168.64 175.8 1183.55 189.53C1198.46 203.26 1218.08 210.13 1242.41 210.13C1266.74 210.13 1286.36 203.26 1301.27 189.53C1316.18 175.8 1323.64 155.49 1323.64 128.61V0H1294.21Z" fill="black"/>
<path d="M834.75 179.82V102.42H946.3V76.82H834.75V26.19H954.24V0H805.32V206.31H954.24V179.82H834.75Z" fill="black"/>
<path d="M1127.73 206.31H1159.49L1086.98 0H1040.01L971.93 206.31H1001.68L1026.13 130.67H1101.98L1127.73 206.31ZM1034.43 105.07L1063.06 16.83L1093.22 105.07H1034.43Z" fill="black"/>
</svg>
